<mxfile host="Electron" modified="2023-08-06T13:52:17.647Z" agent="Mozilla/5.0 (Windows NT 10.0; Win64; x64) AppleWebKit/537.36 (KHTML, like Gecko) draw.io/21.6.5 Chrome/114.0.5735.243 Electron/25.3.1 Safari/537.36" etag="QLcAmbbQidVnt1423Ew0" version="21.6.5" type="device">
  <diagram name="Page-1" id="n9EAqBFz1LJdTdhsE6Lq">
    <mxGraphModel dx="880" dy="511" grid="1" gridSize="10" guides="1" tooltips="1" connect="1" arrows="1" fold="1" page="1" pageScale="1" pageWidth="1169" pageHeight="827" math="0" shadow="0">
      <root>
        <mxCell id="0" />
        <mxCell id="1" parent="0" />
        <mxCell id="TezlVDCR1O45ZtfIFAKT-1" style="edgeStyle=orthogonalEdgeStyle;rounded=0;orthogonalLoop=1;jettySize=auto;html=1;exitX=0.5;exitY=0;exitDx=0;exitDy=0;dashed=1;endArrow=none;endFill=0;targetPerimeterSpacing=0;" edge="1" parent="1" source="TezlVDCR1O45ZtfIFAKT-13">
          <mxGeometry relative="1" as="geometry">
            <mxPoint x="155" y="40" as="targetPoint" />
            <mxPoint x="155" y="89.99999999999994" as="sourcePoint" />
          </mxGeometry>
        </mxCell>
        <mxCell id="TezlVDCR1O45ZtfIFAKT-15" style="edgeStyle=orthogonalEdgeStyle;rounded=0;orthogonalLoop=1;jettySize=auto;html=1;exitX=0.5;exitY=0;exitDx=0;exitDy=0;entryX=0.5;entryY=1;entryDx=0;entryDy=0;dashed=1;endArrow=none;endFill=0;" edge="1" parent="1" source="TezlVDCR1O45ZtfIFAKT-2" target="TezlVDCR1O45ZtfIFAKT-13">
          <mxGeometry relative="1" as="geometry" />
        </mxCell>
        <mxCell id="TezlVDCR1O45ZtfIFAKT-23" value="Job" style="edgeLabel;html=1;align=center;verticalAlign=middle;resizable=0;points=[];fontSize=11;fontFamily=Helvetica;fontColor=default;" vertex="1" connectable="0" parent="TezlVDCR1O45ZtfIFAKT-15">
          <mxGeometry x="-0.0041" y="1" relative="1" as="geometry">
            <mxPoint y="-64" as="offset" />
          </mxGeometry>
        </mxCell>
        <mxCell id="TezlVDCR1O45ZtfIFAKT-2" value="Job" style="swimlane;fontStyle=1;align=center;verticalAlign=top;childLayout=stackLayout;horizontal=1;startSize=30;horizontalStack=0;resizeParent=1;resizeParentMax=0;resizeLast=0;collapsible=0;marginBottom=0;html=1;whiteSpace=wrap;" vertex="1" parent="1">
          <mxGeometry x="130" y="120" width="50" height="60" as="geometry" />
        </mxCell>
        <mxCell id="TezlVDCR1O45ZtfIFAKT-3" value="salaray" style="text;html=1;strokeColor=none;fillColor=none;align=left;verticalAlign=middle;spacingLeft=4;spacingRight=4;overflow=hidden;rotatable=0;points=[[0,0.5],[1,0.5]];portConstraint=eastwest;whiteSpace=wrap;" vertex="1" parent="TezlVDCR1O45ZtfIFAKT-2">
          <mxGeometry y="30" width="50" height="30" as="geometry" />
        </mxCell>
        <mxCell id="TezlVDCR1O45ZtfIFAKT-17" style="edgeStyle=orthogonalEdgeStyle;rounded=0;orthogonalLoop=1;jettySize=auto;html=1;exitX=1;exitY=0.5;exitDx=0;exitDy=0;entryX=0;entryY=0.5;entryDx=0;entryDy=0;endArrow=none;endFill=0;" edge="1" parent="1" source="TezlVDCR1O45ZtfIFAKT-10" target="TezlVDCR1O45ZtfIFAKT-13">
          <mxGeometry relative="1" as="geometry" />
        </mxCell>
        <mxCell id="TezlVDCR1O45ZtfIFAKT-19" value="*" style="edgeLabel;html=1;align=center;verticalAlign=middle;resizable=0;points=[];fontSize=11;fontFamily=Helvetica;fontColor=default;" vertex="1" connectable="0" parent="TezlVDCR1O45ZtfIFAKT-17">
          <mxGeometry x="-0.7036" relative="1" as="geometry">
            <mxPoint y="-9" as="offset" />
          </mxGeometry>
        </mxCell>
        <mxCell id="TezlVDCR1O45ZtfIFAKT-20" value="person" style="edgeLabel;html=1;align=center;verticalAlign=middle;resizable=0;points=[];fontSize=11;fontFamily=Helvetica;fontColor=default;" vertex="1" connectable="0" parent="TezlVDCR1O45ZtfIFAKT-17">
          <mxGeometry x="-0.5464" y="-1" relative="1" as="geometry">
            <mxPoint x="2" y="7" as="offset" />
          </mxGeometry>
        </mxCell>
        <mxCell id="TezlVDCR1O45ZtfIFAKT-10" value="&lt;b&gt;Person&lt;/b&gt;" style="whiteSpace=wrap;html=1;" vertex="1" parent="1">
          <mxGeometry y="25" width="60" height="30" as="geometry" />
        </mxCell>
        <mxCell id="TezlVDCR1O45ZtfIFAKT-11" value="&lt;b&gt;Company&lt;/b&gt;" style="whiteSpace=wrap;html=1;" vertex="1" parent="1">
          <mxGeometry x="260" y="25" width="80" height="30" as="geometry" />
        </mxCell>
        <mxCell id="TezlVDCR1O45ZtfIFAKT-12" value="&lt;b&gt;Figure 11.36 Example AssociationClass using diamond symbol&lt;/b&gt;" style="text;html=1;align=left;verticalAlign=middle;resizable=0;points=[];autosize=1;strokeColor=none;fillColor=none;" vertex="1" parent="1">
          <mxGeometry y="190" width="380" height="30" as="geometry" />
        </mxCell>
        <mxCell id="TezlVDCR1O45ZtfIFAKT-18" style="edgeStyle=orthogonalEdgeStyle;shape=connector;rounded=0;orthogonalLoop=1;jettySize=auto;html=1;exitX=1;exitY=0.5;exitDx=0;exitDy=0;entryX=0;entryY=0.5;entryDx=0;entryDy=0;labelBackgroundColor=default;strokeColor=default;fontFamily=Helvetica;fontSize=11;fontColor=default;endArrow=none;endFill=0;" edge="1" parent="1" source="TezlVDCR1O45ZtfIFAKT-13" target="TezlVDCR1O45ZtfIFAKT-11">
          <mxGeometry relative="1" as="geometry" />
        </mxCell>
        <mxCell id="TezlVDCR1O45ZtfIFAKT-21" value="1..*" style="edgeLabel;html=1;align=center;verticalAlign=middle;resizable=0;points=[];fontSize=11;fontFamily=Helvetica;fontColor=default;" vertex="1" connectable="0" parent="TezlVDCR1O45ZtfIFAKT-18">
          <mxGeometry x="0.4381" y="1" relative="1" as="geometry">
            <mxPoint x="9" y="-8" as="offset" />
          </mxGeometry>
        </mxCell>
        <mxCell id="TezlVDCR1O45ZtfIFAKT-22" value="company" style="edgeLabel;html=1;align=center;verticalAlign=middle;resizable=0;points=[];fontSize=11;fontFamily=Helvetica;fontColor=default;" vertex="1" connectable="0" parent="TezlVDCR1O45ZtfIFAKT-18">
          <mxGeometry x="0.4" y="-2" relative="1" as="geometry">
            <mxPoint x="-1" y="6" as="offset" />
          </mxGeometry>
        </mxCell>
        <mxCell id="TezlVDCR1O45ZtfIFAKT-13" value="" style="rhombus;whiteSpace=wrap;html=1;" vertex="1" parent="1">
          <mxGeometry x="140" y="30" width="30" height="20" as="geometry" />
        </mxCell>
      </root>
    </mxGraphModel>
  </diagram>
</mxfile>
